<svg width="42" height="32" xmlns="http://www.w3.org/2000/svg">
 <title>laptop</title>

 <g>
  <title>background</title>
  <rect fill="#000000" id="canvas_background" height="34" width="44" y="-1" x="-1"/>
 </g>
 <g>
  <title>Layer 1</title>
  <path d="m6.412445,5.660784c0,0.050917 0,0.407331 0,1.018329c0,0.763746 0,1.323827 0,1.731159c0,0.203666 0,0.305498 0,0.305498c0,-0.050917 0.010035,-0.102328 0,-0.203666c-0.025583,-0.258361 -0.127242,-0.710454 -0.15275,-1.120161c-0.022147,-0.355727 -0.050916,-0.610997 -0.050916,-0.763746c0,-0.050917 0,-0.101833 0,-0.050917l0,0.101833l-0.050917,0.15275" id="svg_2" stroke-opacity="null" stroke-width="null" stroke="null" fill="none"/>
  <path d="m13.795326,3.522295c0,0 0.152749,0 0.71283,0c1.323827,0 3.258652,0 5.346224,0c1.934824,0 3.56415,0 4.786144,0c0.967413,0 1.782242,-0.002108 2.443989,0.050916c0.611155,0.04897 1.120777,0.148609 1.476576,0.203666c0.30607,0.047361 0.513041,0.082348 0.560081,0.101833c0.066526,0.027556 0.050917,0 0.050917,0l-0.050917,-0.050916" id="svg_3" stroke-opacity="null" stroke-width="null" stroke="null" fill="none"/>
  <path stroke="#ffffff" id="svg_1" d="m3.45292,26c0.276,0 0.5,-0.224 0.5,-0.5l0,-23.5c0,-0.598 0.402,-1 1,-1l32,0c0.57,0 1,0.468 1,1.089l0,23.411c0,0.276 0.224,0.5 0.5,0.5s0.5,-0.224 0.5,-0.5l0,-23.411c0,-1.172 -0.878,-2.089 -2,-2.089l-32,0c-1.159,0 -2,0.841 -2,2l0,23.5c0,0.276 0.224,0.5 0.5,0.5zm3,-23l-0.45292,0.5l-0.04708,22l0.5,0.5l29,0l0.5,-0.5l0,-22l-0.5,-0.5l-29,0zm28.5,22l-28,0l0,-21l28,0l0,21zm6.5,3l-41,0c-0.276,0 -0.5,0.224 -0.5,0.5l0,1.175c0,1.198 1.408,2.325 2.5,2.325l37,0c1.145,0 2.5,-1.355 2.5,-2.5l0,-1c0,-0.276 -0.224,-0.5 -0.5,-0.5zm-0.5,1.5c0,0.589 -0.911,1.5 -1.5,1.5l-37,0c-0.631,0 -1.5,-0.768 -1.5,-1.325l0,-0.675l40,0l0,0.5z"/>
 </g>
</svg>