<svg width="19" height="32" xmlns="http://www.w3.org/2000/svg">
 <title>phone</title>

 <g>
  <title>background</title>
  <rect fill="#000000" id="canvas_background" height="34" width="21" y="-1" x="-1"/>
 </g>
 <g>
  <title>Layer 1</title>
  <path stroke="#ffffff" id="svg_1" d="m1.5,32l16,0c0.827,0 1.5,-0.673 1.5,-1.5l0,-29c0,-0.827 -0.673,-1.5 -1.5,-1.5l-16,0c-0.827,0 -1.5,0.673 -1.5,1.5l0,29c0,0.827 0.673,1.5 1.5,1.5zm-0.5,-30.5c0,-0.276 0.224,-0.5 0.5,-0.5l16,0c0.276,0 0.5,0.224 0.5,0.5l0,29c0,0.276 -0.224,0.5 -0.5,0.5l-16,0c-0.276,0 -0.5,-0.224 -0.5,-0.5l0,-29zm1.5,25.5l14,0c0.276,0 0.5,-0.224 0.5,-0.5l0,-21c0,-0.276 -0.224,-0.5 -0.5,-0.5l-14,0c-0.276,0 -0.5,0.224 -0.5,0.5l0,21c0,0.276 0.224,0.5 0.5,0.5zm0.5,-21l13,0l0,20l-13,0l0,-20zm6,23c0,0.552 0.448,1 1,1s1,-0.448 1,-1c0,-0.552 -0.448,-1 -1,-1s-1,0.448 -1,1zm-1.5,-25l4,0c0.276,0 0.5,-0.224 0.5,-0.5s-0.224,-0.5 -0.5,-0.5l-4,0c-0.276,0 -0.5,0.224 -0.5,0.5s0.224,0.5 0.5,0.5z"/>
 </g>
</svg>