<svg width="25" height="32" xmlns="http://www.w3.org/2000/svg">
 <title>tablet</title>

 <g>
  <title>background</title>
  <rect fill="#000000" id="canvas_background" height="34" width="27" y="-1" x="-1"/>
 </g>
 <g>
  <title>Layer 1</title>
  <path stroke="#ffffff" id="svg_1" d="m1.446524,31.946524l22,0c0.827,0 1.5,-0.673 1.5,-1.5l0,-29c0,-0.827 -0.673,-1.5 -1.5,-1.5l-22,0c-0.827,0 -1.5,0.673 -1.5,1.5l0,29c0,0.827 0.673,1.5 1.5,1.5zm-0.5,-30.5c0,-0.276 0.224,-0.5 0.5,-0.5l22,0c0.276,0 0.5,0.224 0.5,0.5l0,29c0,0.276 -0.224,0.5 -0.5,0.5l-22,0c-0.276,0 -0.5,-0.224 -0.5,-0.5l0,-29zm2.5,25.5l18,0c0.276,0 0.5,-0.224 0.5,-0.5l0,-23c0,-0.276 -0.224,-0.5 -0.5,-0.5l-18,0c-0.276,0 -0.5,0.224 -0.5,0.5l0,23c0,0.276 0.224,0.5 0.5,0.5zm0.5,-23l17,0l0,22l-17,0l0,-22zm8,25c0,0.552 0.448,1 1,1s1,-0.448 1,-1c0,-0.552 -0.448,-1 -1,-1s-1,0.448 -1,1z"/>
 </g>
</svg>